<svg xmlns="http://www.w3.org/2000/svg" xmlns:xlink="http://www.w3.org/1999/xlink" app-context="doc-2d" width="2009.18881066648" height="510.5944053332396" style=""><rect id="backgroundrect" width="100%" height="100%" x="0" y="0" fill="none" stroke="none" class="" style=""/><defs><pattern id="default-pattern" x="0" y="0" width="56" height="100" patternUnits="userSpaceOnUse" patternTransform="rotate(0) scale(1)"><rect width="56" height="100" fill="#f8d203" id="svg_1"/><path d="M28 66L0 50L0 16L28 0L56 16L56 50L28 66L28 100" fill="none" stroke="#fff629" stroke-width="2" id="svg_2"/><path d="M28 0L28 34L0 50L0 84L28 100L56 84L56 50L28 34" fill="none" stroke="#ffe503" stroke-width="2" id="svg_3"/></pattern></defs><g class="currentLayer" style=""><title>Layer 1</title><g id="jvs-guides"/><g id="jvs-content" enable-background="new" class=""><g name="Layer" jvs-layer-color="#fb0094" class="jvs-layer" stroke-width="0" id="svg_5"><g fill="#000000" fill-rule="evenodd" stroke="none" selected="true" id="svg_6">
        <path d="M87.37271285332727,43.10020630414986 C85.80152906759328,28.99546500479044 79.35518644955395,22.279776594910892 64.28080029957025,22.279776594910892 C35.53262611717125,22.279776594910892 28.305180702795557,55.15791958552462 28.305180702795557,71.92020603103964 C28.305180702795557,89.28403141166407 36.78059495269699,101.47641758895895 55.482171099460565,101.47641758895895 C78.41247617811368,101.47641758895895 84.39195275696363,80.64700968665858 85.33466302840405,77.83683525846023 L56.11064461375414,77.83683525846023 L59.405641467264495,59.359713938229945 L110.94046963933506,59.359713938229945 L100.73226412859573,118.09505294549245 L84.85881879615314,118.09505294549245 L84.38297456390238,105.71412471390957 C75.27908679970723,117.44862304507636 59.55827074930729,120.90522737369079 49.66430199571467,120.90522737369079 C33.315012431021024,120.90522737369079 4.7284457237260735,111.20877886744749 4.7284457237260735,72.0638571200209 C4.7284457237260735,35.2442873754806 25.306464220309103,2.850966810178992 64.90927381386368,2.850966810178992 C90.67668789989905,2.850966810178992 110.47360360014585,15.689782887890033 110.47360360014585,43.10020630414986 L87.37271285332727,43.10020630414986 zM157.25896764276956,55.759458520634126 L179.8840141573369,55.759458520634126 C196.53856228611616,55.759458520634126 202.0421946327152,45.748773257244004 202.0421946327152,37.623508536734754 C202.0421946327152,24.641041370042302 189.4727243468444,24.641041370042302 184.75917298964254,24.641041370042302 L162.74464360324578,24.641041370042302 L157.25896764276925,55.759458520634126 zM143.1183135711649,5.661141238377258 L186.01612001822997,5.661141238377258 C208.79379581484028,5.661141238377258 225.29571466157626,14.16349006746274 225.29571466157626,38.22504747184426 C225.29571466157626,53.90995074999888 216.18284870432018,63.75902853828479 204.3944812147854,67.07198177791794 C208.16532230054656,68.59827459834509 214.45005744348225,71.26479793756202 214.45005744348225,84.7500439156892 C214.45005744348225,87.85649871491161 213.04048113285245,101.65598145018566 213.04048113285245,104.28659201715712 C213.04048113285245,111.02921500622065 213.34573969693776,113.38150158829087 218.38250600434745,115.09633646300611 L218.38250600434745,118.09505294549245 L191.03492993951681,118.09505294549245 C190.1011978611378,115.55422430913426 189.3111168717403,112.92361374216262 189.3111168717403,110.10446112090315 C189.3111168717403,103.5054892208209 190.25382714318076,97.08608118196537 190.56806390032747,90.53200024718981 C190.56806390032747,82.07454238341103 189.625353628887,74.55081659801112 174.22775252869522,74.55081659801112 L153.9729489823203,74.55081659801112 L146.5749178997793,118.09505294549245 L123.025117499894,118.09505294549245 L143.1183135711649,5.661141238377258 zM275.0708169936249,5.661141238377258 L263.60566445429885,70.81588828449532 C262.81558346490107,75.66411253761686 262.0344806685647,81.43709067605617 262.0344806685647,83.93302834710765 C262.0344806685647,98.65726496769935 274.2986923903502,101.33276649997757 281.36453032962197,101.33276649997757 C301.9515270192661,101.33276649997757 304.9322871156298,85.17201898957201 308.22728396914044,66.73978863464858 L319.5398072264241,5.661141238377258 L342.94595653732813,5.661141238377258 L330.53809372656104,73.95825585596302 C324.7202246228153,105.57945181798958 312.78820604429905,120.91420556675217 279.0032655544904,120.91420556675217 C260.4632968828309,120.91420556675217 238.62833135766064,109.93387545273772 238.62833135766064,86.15064203325775 C238.62833135766064,83.18783832301678 239.10417558991173,77.24427451641198 240.67535937564557,68.14038675221698 L251.5030602076171,5.661141238377258 L275.0708169936249,5.661141238377258 zM379.379463980231,59.54825599251806 L400.27171923396065,59.54825599251806 C415.19347610190147,59.54825599251806 421.48718943789856,50.91123426751256 421.48718943789856,40.424704771871674 C421.48718943789856,31.98520329421548 418.0216069162224,25.098929216170486 405.4521366303516,25.098929216170486 L385.64624273704385,25.098929216170486 L379.379463980231,59.54825599251806 zM365.53509027965015,5.661141238377258 L404.34781888380746,5.661141238377258 C433.5628591053958,5.661141238377258 444.1032577594048,21.03180775938508 444.1032577594048,38.08139638286285 C444.1032577594048,63.47172636032212 428.6966784661513,78.93217481194331 398.3683423049573,78.93217481194331 L375.74329579038965,78.93217481194331 L368.6864360441793,118.09505294549245 L345.1186792581712,118.09505294549245 L365.54406847271156,5.661141238377258 zM505.98096433813487,101.47641758895895 C534.7381167135952,101.47641758895895 541.803954652867,69.55894125590817 541.803954652867,51.87190092507551 C541.803954652867,31.195122304817783 529.3871136490388,22.279776594910892 515.2554377704953,22.279776594910892 C486.4982853950349,22.279776594910892 479.4324474557631,54.19725292796153 479.4324474557631,71.92020603103964 C479.4324474557631,92.57005007211315 491.8403102665302,101.47641758895895 505.98096433813487,101.47641758895895 M516.0365405668314,2.850966810178992 C553.58334394934,2.850966810178992 565.3717114388749,31.33877339379934 565.3717114388749,52.94928409243594 C565.3717114388749,85.03734609365199 546.0506399708789,120.91420556675217 505.19986154179844,120.91420556675217 C467.6440799662287,120.91420556675217 455.8736688628167,92.41742079007051 455.8736688628167,70.81588828449532 C455.8736688628167,38.71884809021768 475.17678394468953,2.850966810178992 516.0275623737703,2.850966810178992 M1902.485025870637,258.06508277172617 L1819.4187836671526,258.06508277172617 L1819.4187836671526,232.68373098732835 C1819.4187836671526,220.81455976024174 1818.3234441136701,213.2369648164737 1816.222546937317,209.98685892827004 C1814.1036933748414,206.727774847005 1810.5662853086756,205.13863467514835 1805.5744099665721,205.13863467514835 C1800.1695377436477,205.13863467514835 1796.0934380938006,207.32033558905314 1793.3640674031544,211.7196501891079 C1790.6167403263848,216.05611743773343 1789.23409859494,222.70895849618367 1789.23409859494,231.5883914338454 C1789.23409859494,243.00865300786518 1790.7603914153674,251.6905656981775 1793.8758244076503,257.4725220296779 C1796.8386281178919,263.25447836117866 1805.3319987539162,270.203599790653 1819.1943288406192,278.4455810209597 C1859.0305714537685,301.995381420845 1884.0527955157136,321.3164528888409 1894.4315866946172,336.399817231886 C1904.8013996804616,351.52807254023764 1909.9459043046068,375.88591031564323 1909.9459043046068,409.51822152340924 C1909.9459043046068,433.938906650244 1907.0459479457954,451.94916193128466 1901.3268389657242,463.51307459428597 C1895.5987517925914,475.0680090642259 1884.4927269757186,484.8183267288373 1868.0805900595951,492.63833288526115 C1851.6145839851042,500.4493608486237 1832.5359237297648,504.4267003747958 1810.7099363976563,504.4267003747958 C1786.7561173100112,504.4267003747958 1766.3037935162865,499.87475649269834 1749.3888777887287,490.84269427299404 C1732.4200929028034,481.8016538602281 1721.3230462789916,470.2826321625337 1716.0887597242322,456.34847653133966 C1710.8634513625348,442.3245389695323 1708.2687535678083,422.51864507622423 1708.2687535678083,396.78714376243425 L1708.2687535678083,374.3685956882775 L1791.3170393851697,374.3685956882775 L1791.3170393851697,416.0992370373688 C1791.3170393851697,428.95600950120246 1792.493182676205,437.19799073150926 1794.800578292968,440.87904988665724 C1797.206734033406,444.48828349731446 1801.3456810346825,446.37370404019504 1807.2802666482257,446.37370404019504 C1813.2328086478915,446.37370404019504 1817.6680360201917,444.0573302303701 1820.567992379003,439.34377887316873 C1823.4679487378148,434.7289876396417 1824.9224160137514,427.8068007893514 1824.9224160137514,418.63108748066554 C1824.9224160137514,398.44810947878165 1822.1750889369823,385.21425290637166 1816.662478397322,379.00134330792685 C1810.9972385756191,372.77047732335956 1797.000235592995,362.44555530282275 1774.779207766188,347.91883892958043 C1752.5132889740744,333.16766772980486 1737.7890523534825,322.5374871451826 1730.5436505529842,315.88464608673235 C1723.3610961039149,309.24078322134335 1717.3457067528198,300.05609171959634 1712.6231772025567,288.34852796761373 C1707.8108657216803,276.6409642156312 1705.5124482979786,261.68329457544485 1705.5124482979786,243.457562660932 C1705.5124482979786,217.21430434264573 1708.8523361167959,197.9919929983248 1715.5859809127978,185.82654140021387 C1722.2567783573704,173.69700257434863 1733.1293701546497,164.2160307015774 1748.1588653393255,157.36566939577764 C1763.1883605240027,150.56019905528476 1781.3243105079023,147.1035947266702 1802.5667152910241,147.1035947266702 C1825.8920608643757,147.1035947266702 1845.662041985439,150.85647942630882 1861.9843969709482,158.29940147415667 C1878.3785775009487,165.8051708734339 1889.2152565259812,175.2232953947758 1894.5752377835988,186.63457877573413 C1899.863393496726,197.9919929983248 1902.485025870637,217.28612988713652 1902.485025870637,244.54392402135372 L1902.485025870637,258.06508277172617 zM1508.189721195928,154.31308375492338 L1657.4342244545223,154.31308375492338 L1657.4342244545223,222.9064787435332 L1597.7471969827584,222.9064787435332 L1597.7471969827584,287.89064012148566 L1653.5825796312083,287.89064012148566 L1653.5825796312083,353.1710818704621 L1597.7382187896965,353.1710818704621 L1597.7382187896965,428.5879035856876 L1663.386766454188,428.5879035856876 L1663.386766454188,497.19027676735874 L1508.189721195928,497.19027676735874 L1508.189721195928,154.31308375492324 zM1339.471517187295,212.94068444544982 L1339.471517187295,289.20145630844075 C1349.4822024506852,289.20145630844075 1356.5121276177115,287.8277927700564 1360.5702708814356,285.0894438863487 C1364.664326917405,282.3331386165185 1366.684420356206,273.37290194130475 1366.684420356206,258.2536248260143 L1366.684420356206,239.47124494169867 C1366.684420356206,228.55376217911365 1364.7361524618955,221.46098966065793 1360.8126820940915,218.06723268347287 C1356.8712553401656,214.68245389934907 1349.7695046286485,212.94068444544982 1339.471517187295,212.94068444544982 zM1249.9499541727105,154.31308375492338 L1313.2911062204385,154.31308375492338 C1355.5155481879037,154.31308375492338 1384.1021148951982,155.8932457337185 1399.0418281492616,159.16130800804493 C1413.999497789448,162.41141389624872 1426.1829057736818,170.7341988641075 1435.601030295024,184.02192459488532 C1445.0460893955492,197.39943225627644 1449.7686189458122,218.6508152324596 1449.7686189458122,247.90176822629357 C1449.7686189458122,274.5939361976464 1446.4287311269954,292.5233877411352 1439.7399772963,301.7080792428823 C1433.1230490100947,310.90174893769074 1420.0059089474826,316.3874248981673 1400.4424262668308,318.2010198965572 C1418.129466597663,322.60033449661205 1430.0884197553628,328.4630945656647 1436.1756346509492,335.8341910690218 C1442.2089803881672,343.1334620278884 1446.0516470184189,349.84915043776783 1447.5150924874165,355.9992126847833 C1449.01445072866,362.1492749317987 1449.7596407527512,379.07316885241784 1449.7596407527512,406.7529380605178 L1449.7596407527512,497.19027676735885 L1366.684420356206,497.19027676735885 L1366.684420356206,383.2570068190003 C1366.684420356206,364.9145583946902 1365.176083921901,353.539187785977 1362.2671493700277,349.1398731859223 C1359.3671930112164,344.7764713581129 1351.7447071021425,342.56783586502405 1339.471517187295,342.56783586502405 L1339.471517187295,497.19027676735874 L1249.9499541727105,497.19027676735874 L1249.9499541727105,154.31308375492338 zM1103.2911705157808,242.44302684500093 C1103.2911705157808,226.4618431958223 1102.4202857888317,216.2626158781442 1100.6066907904415,211.80045392666 C1098.8738995296035,207.3652265543598 1095.228753146701,205.12067828902585 1089.7161426070406,205.12067828902585 C1085.0115694429,205.12067828902585 1081.4382486044883,206.94325148047702 1078.978223705682,210.54350689807285 C1076.4373950693239,214.09887135036212 1075.2073826199212,224.72905193498434 1075.2073826199212,242.44302684500093 L1075.2073826199212,402.4793181633215 C1075.2073826199212,422.44681953173364 1076.0872455399322,434.72000944658043 1077.68536390485,439.33480068010726 C1079.2655258836448,444.04835203730886 1083.108192513897,446.3647258471336 1089.0786908996856,446.3647258471336 C1095.1569276022105,446.3647258471336 1099.0085724255237,443.6982025079168 1100.7503418794226,438.3382212502989 C1102.4202857888317,432.9243708343131 1103.2911705157808,420.2112494594609 1103.2911705157808,399.9654241061474 L1103.2911705157808,242.45200503806237 zM1192.7409079858749,355.05650241334286 C1192.7409079858749,389.5417419619359 1191.959805189539,413.9175361234641 1190.3527086315594,428.2287758632341 C1188.7399231014529,442.4454831335494 1183.4551526490795,455.99776335936093 1175.0179548827973,467.5532614718874 C1166.50662786065,479.4134545059128 1154.87986784622,488.4993858839851 1140.2903041215482,494.8828811505954 C1125.7186967829994,501.2484200310828 1108.6601299664603,504.41772218173446 1089.2762111470352,504.41772218173446 C1070.8709153712953,504.41772218173446 1054.2971709800686,501.3651365408801 1039.6627162900904,495.37668176896875 C1024.9295014764375,489.37924880399606 1013.177046759148,480.4279903218437 1004.2527228561796,468.4151680057757 C995.3283989532114,456.4203020758303 990.0402432400846,443.32111839934043 988.3074519792463,429.2343334861039 C986.6285298767765,415.066744835315 985.7486669567653,390.349779337456 985.7486669567653,355.05650241334286 L985.7486669567653,296.4378799158779 C985.7486669567653,261.9616185603462 986.5387479461631,237.59480259187922 988.2266482416943,223.20275911455724 C989.7669304702222,208.99747672007842 995.0493136169357,195.45536718138175 1003.534467411273,183.95907724345597 C1012.0996635917877,172.10786240249197 1023.6276634825434,163.00397463829697 1038.2621181725217,156.62945756474812 C1052.8516818971939,150.27289687732195 1069.8204667831192,147.1125729197316 1089.2762111470352,147.1125729197316 C1107.71741969502,147.1125729197316 1124.2372949278783,150.1112894022179 1138.9256187762253,156.12667875331346 C1153.551095273142,162.12411171828606 1165.420266500229,171.09332658656106 1174.308677630952,183.08819251650644 C1183.2509579200423,195.09203663951308 1188.5391136331696,208.18224212294152 1190.2000793495167,222.26902703617836 C1191.959805189539,236.44559388002838 1192.7409079858749,261.09971202645795 1192.7409079858749,296.4378799158779 L1192.7409079858749,355.06548060640426 zM944.0000692215517,154.32206194798462 L944.0000692215517,222.91545693659444 L890.8940572637471,222.91545693659444 L890.8940572637471,497.19925496042 L801.4263634075302,497.19925496042 L801.4263634075302,222.91545693659444 L748.4819589248299,222.91545693659444 L748.4819589248299,154.32206194798462 L943.9821128354287,154.32206194798462 zM704.3990309936684,258.06508277172617 L621.3327887901843,258.06508277172617 L621.3327887901843,232.68373098732835 C621.3327887901843,220.81455976024174 620.2464274297625,213.2369648164737 618.1455302534099,209.98685892827004 C616.0356548839957,206.727774847005 612.5072250108907,205.13863467514835 607.4973932826649,205.13863467514835 C602.0925210597404,205.13863467514835 598.0253996029551,207.32033558905314 595.2870507192478,211.7196501891079 C592.5307454494172,216.05611743773343 591.1570819110331,222.70895849618367 591.1570819110331,231.5883914338454 C591.1570819110331,243.00865300786518 592.6654183453373,251.6905656981775 595.7988077237437,257.4725220296779 C598.7795678201073,263.25447836117866 607.2639602630702,270.203599790653 621.1083339636509,278.4455810209597 C660.9715111559843,301.995381420845 685.9847570248675,321.3164528888409 696.3455918176494,336.399817231886 C706.7154048034929,351.52807254023764 711.8778658137613,375.88591031564323 711.8778658137613,409.51822152340924 C711.8778658137613,433.938906650244 708.9599530688268,451.94916193128466 703.2588004748789,463.51307459428597 C697.5307133017459,475.0680090642259 686.4067320987501,484.8183267288373 670.0125515687502,492.63833288526115 C653.5465454942591,500.4493608486237 634.4589070458583,504.4267003747958 612.6239415206883,504.4267003747958 C588.6880788191655,504.4267003747958 568.2088204462572,499.87475649269834 551.3298174909447,490.84269427299404 C534.3610326050193,481.8016538602281 523.2460295950847,470.2826321625337 518.0207212333868,456.34847653133966 C512.7954128716891,442.3245389695323 510.19173688390174,422.51864507622423 510.19173688390174,396.78714376243425 L510.19173688390174,374.3685956882775 L593.240022701263,374.3685956882775 L593.240022701263,416.0992370373688 C593.240022701263,428.95600950120246 594.4251441853592,437.19799073150926 596.741517995184,440.87904988665724 C599.1297173494996,444.48828349731446 603.277642543837,446.37370404019504 609.203249964319,446.37370404019504 C615.1737483501076,446.37370404019504 619.5910193362851,444.0573302303701 622.4819975020355,439.34377887316873 C625.3909320539086,434.7289876396417 626.8633557159678,427.8068007893514 626.8633557159678,418.63108748066554 C626.8633557159678,398.44810947878165 624.0801158669533,385.21425290637166 618.5764835203541,379.00134330792685 C612.9202218917122,372.77047732335956 598.8962843299049,362.44555530282275 576.7201474684041,347.91883892958043 C554.4452504832285,333.16766772980486 539.7299920556982,322.5374871451826 532.4486774829543,315.88464608673235 C525.2661230338854,309.24078322134335 519.2417554897287,300.05609171959634 514.5282041325274,288.34852796761373 C509.73384903777344,276.6409642156312 507.4264534210103,261.68329457544485 507.4264534210103,243.457562660932 C507.4264534210103,217.21430434264573 510.77531943288847,197.9919929983248 517.5179424219522,185.82654140021387 C524.1797616734638,173.69700257434863 535.0882662429873,164.2160307015774 550.0908268484807,157.36566939577764 C565.1023656470348,150.56019905528476 583.2472938239956,147.1035947266702 604.4986768001785,147.1035947266702 C627.7791314082239,147.1035947266702 647.5940034945933,150.85647942630882 663.9073802870413,158.29940147415667 C680.3105390101031,165.8051708734339 691.1113052628907,175.2232953947758 696.489242906631,186.63457877573413 C701.7953550058809,197.9919929983248 704.3990309936684,217.28612988713652 704.3990309936684,244.54392402135372 L704.3990309936684,258.06508277172617 zM377.08104655652886,374.80852714828296 C372.50216809524744,335.97784215800306 368.01307156457915,287.9894002451603 363.4611276824816,230.95093972649045 C354.37519630440914,296.5097054603685 348.7189346757675,344.4353000217821 346.4564300243107,374.80852714828296 L377.08104655652886,374.80852714828296 zM424.4679495342622,154.32206194798462 L475.67058456306336,497.19925496042 L384.04812437212576,497.19925496042 L379.6308533859481,435.5280468221006 L347.48892222636425,435.5280468221006 L342.19178832017565,497.2082331534812 L249.53683592718448,497.2082331534812 L295.0293401689759,154.32206194798462 L424.4679495342622,154.32206194798462 zM214.01910417653792,303.8089764192349 L124.57834489950507,303.8089764192349 L124.57834489950507,244.1039925613482 C124.57834489950507,226.7491453737851 123.54585269745134,215.91246634875222 121.67838854069358,211.57599910012658 C119.79296799781288,207.32033558905314 115.56423906592335,205.12965648208709 109.05504909645465,205.12965648208709 C101.64803982085195,205.12965648208709 96.98835762201837,207.75128885599744 94.9682641832178,212.94068444544982 C93.01999628890772,218.23781835163817 92.00546047297681,229.48749425749264 92.00546047297681,246.8513196381172 L92.00546047297681,406.1065081601015 C92.00546047297681,422.80594725418706 93.01999628890772,433.66956085840405 94.9682641832178,438.7153053588751 C96.98835762201837,443.8508317899595 101.43256318737991,446.37370404019504 108.39066280991547,446.37370404019504 C115.08839483367258,446.37370404019504 119.4158838892368,443.8508317899595 121.4449555210986,438.7153053588751 C123.48300534602211,433.66956085840405 124.57834489950507,421.7195858937654 124.57834489950507,402.93720600944977 L124.57834489950507,359.9855304040166 L214.0280823695993,359.9855304040166 L214.0280823695993,373.2732561347943 C214.0280823695993,408.7012059548277 211.48725373324112,433.8670811057534 206.48640019807644,448.69007785001975 C201.47656846985097,463.51307459428614 190.30769630154856,476.51349814710113 173.12343478215072,487.63747935009707 C155.912238683569,498.78839513227666 134.6608557073858,504.4267003747958 109.4860023633987,504.4267003747958 C83.22478765898977,504.4267003747958 61.60529876729177,499.6682580522876 44.6275356883047,490.17830798645485 C27.658750802379185,480.7242706928679 16.328271158972555,467.63406520943937 10.815660619312114,450.93462611535375 C5.303050079651672,434.1633614767774 2.5557230028827096,409.006464518913 2.5557230028827096,375.3831315042083 L2.5557230028827096,275.2583224841853 C2.5557230028827096,250.53237879326502 3.417629536770962,232.02832289385083 5.087573446179648,219.66535104839068 C6.820364707017409,207.32033558905314 11.839174628304571,195.37036062441445 20.314588878206003,183.95907724345597 C28.75409035586212,172.54779386249743 40.407784949476714,163.488797063609 55.35647639660196,156.91675974271098 C70.30516784372678,150.41654796630334 87.48045117006322,147.1035947266702 106.85539179642707,147.1035947266702 C133.28719216900132,147.1035947266702 155.04135395661916,152.22116477163203 172.1807245107106,162.34856654481933 C189.275204099495,172.54779386249743 200.52488000534944,185.19806788592044 205.99259957970318,200.3801923526402 C211.33462445119815,215.54436043323733 214.0280823695993,239.17496457067463 214.0280823695993,271.218135606584 L214.0280823695993,303.8089764192349 zM1966.5713679424562,443.15951092423666 C1952.4168303829656,443.1396541566456 1940.9234583069024,454.59284086801676 1940.8937357870336,468.7473611490451 C1940.9234583069024,482.90188143007356 1952.4168303829656,494.35506814144486 1966.5713679424562,494.3352113738536 C1980.7259055019458,494.35506814144486 1992.2192775780095,482.90188143007356 1992.2490000978783,468.7473611490451 C1992.2490000978783,454.6336416566246 1980.7389565932453,443.15951092423666 1966.5713679424562,443.15951092423666 M1966.5713679424562,440.3224019168543 C1982.2927986005948,440.29758393347635 1995.06041264935,453.016970947526 1995.0950872983212,468.73838295598375 C1995.0950872983212,484.4502208133224 1982.3191185720402,497.19925496042 1966.5713679424562,497.19925496042 C1950.8336087714588,497.21415189964324 1938.059416450023,484.4761211070682 1938.0296922004673,468.73838295598375 C1938.069314598587,453.01200763692185 1950.844970922621,440.2926129091367 1966.5713679424562,440.3224019168543 " stroke-width="0" id="svg_7"/>
        <path d="M1957.0275487182553,466.9517225367779 L1965.8261779183654,466.9517225367779 C1967.693642075123,466.9517225367779 1969.1750439302432,466.7542022894285 1970.2165143253587,466.3771181808524 C1971.2114006899378,466.0446360551924 1972.0653290752425,465.38679493107503 1972.6406264519196,464.5096540240944 C1973.1798101054328,463.6948789678867 1973.4670928414794,462.73935160466897 1973.4666202135622,461.76232694732556 C1973.5005597122044,460.37950813262086 1972.9063453272597,459.05573053040587 1971.850545462522,458.16207152972964 C1970.8180532604679,457.2193612582893 1969.1301529649368,456.75249521909984 1966.8227573481736,456.75249521909984 L1957.0275487182553,456.75249521909984 L1957.0275487182553,466.9517225367779 zM1952.9694054545316,484.17189682842104 L1952.9694054545316,453.34078185579193 L1966.652171680008,453.34078185579193 C1969.4174551428991,453.34078185579193 1971.5183523192518,453.61910584069335 1972.9369068229435,454.1577974243736 C1974.3734177127571,454.7413799733605 1975.5226264246076,455.6840902448008 1976.393511151557,457.1116229415532 C1977.2437387794002,458.51268719643525 1977.6853273088677,460.12355239767226 1977.6684145662675,461.76232694732556 C1977.718132127061,463.8180320343765 1976.9457979655504,465.80865062962425 1975.5226264246076,467.29289387310865 C1974.1130501139783,468.77429572822916 1971.9223710070119,469.7259841927309 1968.9595672967712,470.1569374596749 C1970.0549068502542,470.66869446417127 1970.8719224188358,471.171473275606 1971.4285703886385,471.65629570091824 C1972.6226700657962,472.769591640524 1973.762900584586,474.14325517890836 1974.8133491727622,475.76830812301046 L1980.2002650095642,484.17189682842115 L1975.073716771541,484.17189682842115 L1970.9886389286335,477.761466982627 C1970.058912774618,476.30136478407337 1969.0674203167737,474.881523618369 1968.0168570253313,473.5058034715535 C1967.427388040191,472.71617107229247 1966.7221427266036,472.02000617133655 1965.9249380420392,471.44081906744617 C1965.3568994156162,471.07792643185985 1964.7360084374682,470.80534014942407 1964.0844084644655,470.632781691926 C1963.3185046441022,470.5126322324272 1962.5427018954579,470.4675274181859 1961.7680346546408,470.49810879600574 L1957.0275487182548,470.49810879600574 L1957.0275487182548,484.17189682842115 L1952.9694054545316,484.17189682842115 z" stroke-width="0" id="svg_8"/>
    </g></g><g name="Layer 1" jvs-layer-color="#ff7f00" class="jvs-layer" stroke-width="0" id="svg_9"><g fill="rgba(198,24,31,1)" fill-rule="evenodd" stroke="none" id="svg_10">
        <path d="M87.47147297700197,43.315682937621894 C85.90028919126797,29.210941638262465 79.45394657322865,22.495253228382932 64.37956042324494,22.495253228382932 C35.631386240845934,22.495253228382932 28.40394082647024,55.37339621899664 28.40394082647024,72.13568266451152 C28.40394082647024,89.49950804513608 36.879355076371674,101.69189422243082 55.58093122313526,101.69189422243082 C78.51123630178836,101.69189422243082 84.49071288063831,80.86248632013059 85.43342315207875,78.05231189193226 L56.20940473742882,78.05231189193226 L59.504401590939175,59.57519057170195 L111.03922976300974,59.57519057170195 L100.83102425227041,118.31052957896446 L84.95757891982784,118.31052957896446 L84.48173468757706,105.9296013473816 C75.37784692338191,117.66409967854823 59.657030872981984,121.1207040071628 49.76306211938935,121.1207040071628 C33.41377255469571,121.1207040071628 4.827205847400759,111.42425550091939 4.827205847400759,72.27933375349292 C4.827205847400759,35.459764008952654 25.40522434398379,3.0664434436510226 65.00803393753836,3.0664434436510226 C90.77544802357373,3.0664434436510226 110.57236372382053,15.905259521362057 110.57236372382053,43.315682937621894 L87.47147297700197,43.315682937621894 zM157.35772776644407,55.97493515410615 L179.98277428101176,55.97493515410615 C196.6373224097907,55.97493515410615 202.14095475639004,45.964249890716026 202.14095475639004,37.83898517020676 C202.14095475639004,24.85651800351434 189.57148447051893,24.85651800351434 184.85793311331736,24.85651800351434 L162.8434037269206,24.85651800351434 L157.35772776644407,55.97493515410615 zM143.21707369483943,5.876617871849282 L186.1148801419045,5.876617871849282 C208.89255593851482,5.876617871849282 225.3944747852511,14.378966700934779 225.3944747852511,38.44052410531627 C225.3944747852511,54.12542738347074 216.28160882799472,63.97450517175681 204.49324133846025,67.28745841138996 C208.26408242422107,68.81375123181712 214.5488175671568,71.48027457103404 214.5488175671568,84.96552054916124 C214.5488175671568,88.07197534838365 213.139241256527,101.87145808365767 213.139241256527,104.50206865062916 C213.139241256527,111.24469163969269 213.4444998206123,113.59697822176288 218.48126612802199,115.31181309647818 L218.48126612802199,118.31052957896446 L191.13369006319166,118.31052957896446 C190.19995798481264,115.76970094260626 189.40987699541515,113.13909037563462 189.40987699541515,110.31993775437505 C189.40987699541515,103.72096585429307 190.35258726685527,97.30155781543738 190.66682402400198,90.74747688066182 C190.66682402400198,82.29001901688304 189.72411375256183,74.76629323148315 174.32651265237007,74.76629323148315 L154.07170910599513,74.76629323148315 L146.67367802345385,118.31052957896446 L123.1238776235687,118.31052957896446 L143.21707369483943,5.876617871849282 zM275.1695771172997,5.876617871849282 L263.7044245779734,71.03136491796718 C262.9143435885756,75.87958917108888 262.1332407922395,81.65256730952824 262.1332407922395,84.14850498057955 C262.1332407922395,98.87274160117138 274.39745251402474,101.54824313344943 281.4632904532965,101.54824313344943 C302.05028714294093,101.54824313344943 305.0310472393046,85.38749562304405 308.3260440928149,66.95526526812061 L319.63856735009864,5.876617871849282 L343.04471666100267,5.876617871849282 L330.6368538502359,74.1737324894349 C324.8189847464899,105.79492845146162 312.88696616797387,121.12968220022404 279.1020256781652,121.12968220022404 C260.56205700650537,121.12968220022404 238.7270914813355,110.14935208620976 238.7270914813355,86.36611866672976 C238.7270914813355,83.40331495648879 239.20293571358624,77.459751149884 240.77411949932014,68.355863385689 L251.60182033129195,5.876617871849282 L275.1695771172997,5.876617871849282 zM379.47822410390575,59.76373262599007 L400.37047935763525,59.76373262599007 C415.29223622557623,59.76373262599007 421.5859495615731,51.12671090098445 421.5859495615731,40.640181405343704 C421.5859495615731,32.20067992768743 418.12036703989725,25.314405849642508 405.5508967540261,25.314405849642508 L385.7450028607184,25.314405849642508 L379.47822410390575,59.76373262599007 zM365.633850403325,5.876617871849282 L404.44657900748194,5.876617871849282 C433.66161922907065,5.876617871849282 444.20201788307935,21.247284392857107 444.20201788307935,38.29687301633488 C444.20201788307935,63.68720299379416 428.7954385898261,79.14765144541535 398.46710242863185,79.14765144541535 L375.8420559140642,79.14765144541535 L368.7851961678538,118.31052957896446 L345.21743938184574,118.31052957896446 L365.64282859638615,5.876617871849282 zM506.0797244618094,101.69189422243082 C534.8368768372698,101.69189422243082 541.9027147765415,69.77441788938005 541.9027147765415,52.08737755854752 C541.9027147765415,31.41059893828981 529.4858737727134,22.495253228382932 515.35419789417,22.495253228382932 C486.59704551870976,22.495253228382932 479.531207579438,54.41272956143355 479.531207579438,72.13568266451152 C479.531207579438,92.78552670558518 491.9390703902047,101.69189422243082 506.0797244618094,101.69189422243082 M516.1353006905061,3.0664434436510226 C553.682104073015,3.0664434436510226 565.4704715625494,31.554250027271358 565.4704715625494,53.16476072590781 C565.4704715625494,85.2528227271239 546.1494000945535,121.12968220022404 505.2986216654734,121.12968220022404 C467.7428400899032,121.12968220022404 455.9724289864913,92.63289742354252 455.9724289864913,71.03136491796718 C455.9724289864913,38.934324723689706 475.27554406836435,3.0664434436510226 516.1263224974448,3.0664434436510226 M1819.5175437908274,232.89920762080018 L1708.367513691483,374.5840723217495 L1819.5175437908274,232.89920762080018 zM1653.681339754884,353.38655850393417 L1663.4855265778638,428.8033802191595 L1653.681339754884,353.38655850393417 zM1339.5702773109706,213.15616107892177 zM1449.8584008764255,497.4057534008307 L1449.8584008764255,497.4057534008307 zM1103.389930639456,242.65850347847302 L1103.389930639456,242.66748167153438 zM1192.8396681095496,355.27197904681486 L1192.8396681095496,355.2809572398763 zM890.9928173874217,497.41473159389204 L944.0808729591034,154.53753858145666 zM518.1194813570617,456.5639531648117 L510.29049700757633,374.5840723217495 L518.1194813570617,456.5639531648117 zM377.1798066802036,375.02400378175497 L377.1798066802036,375.02400378175497 zM424.5667096579367,154.53753858145666 L475.76934468673795,497.41473159389204 L424.5667096579367,154.53753858145666 zM20.41334900188069,184.17455387692797 L2.654483126557391,275.47379911765734 zM2012.6007587039658,446.714958670309 M1971.0696289812272,486.2684602621085 " stroke-width="0" id="svg_11"/>
</g></g></g></g></svg>